<?xml version="1.0" encoding="utf-8"?><svg version="1.1" id="Layer_1" xmlns="http://www.w3.org/2000/svg" xmlns:xlink="http://www.w3.org/1999/xlink" x="0px" y="0px" viewBox="0 0 122.88 87.76" style="enable-background:new 0 0 122.88 87.76" xml:space="preserve"><g><path d="M6.15,44.04c-2.6,0.7-5.27-0.83-5.98-3.43c-0.7-2.6,0.83-5.27,3.43-5.98c15.79-4.28,27.4-1.5,36.48,7.32 c4.76,4.63,8.68,10.9,12.05,18.69c2.93-15.97,7.99-26.87,15.11-34.29c6.02-6.27,13.3-9.94,21.83-11.97C90.32,6.24,97.37,0,105.87,0 c9.39,0,17.01,7.61,17.01,17.01c0,9.39-7.61,17.01-17.01,17.01c-6.87,0-12.78-4.07-15.47-9.93c-6.41,1.67-11.82,4.48-16.17,9.01 c-8.34,8.69-13.37,23.98-14.89,49.85c-0.02,2.13-1.45,4.07-3.61,4.65c-2.6,0.69-5.26-0.85-5.96-3.44 c-4.37-16.31-9.43-28.36-16.48-35.22C26.84,42.65,18.22,40.77,6.15,44.04L6.15,44.04z"/></g></svg>